<svg viewBox="0 0 800 300" xmlns="http://www.w3.org/2000/svg">
<defs>
<style>
  @keyframes pulse-node{0%,100%{opacity:0.3}50%{opacity:0.9}}
  @keyframes ekg-scroll{0%{transform:translateX(0)}100%{transform:translateX(-400px)}}
  @keyframes fade-in{0%{opacity:0}100%{opacity:1}}

  .bg{fill:#1a1008}
  .name{font-family:'Helvetica Neue',Helvetica,Arial,sans-serif;font-size:72px;font-weight:800;fill:#FFB800;letter-spacing:6px;opacity:0;animation:fade-in 0.5s ease-out forwards}
  .sub{font-family:'Helvetica Neue',Helvetica,Arial,sans-serif;font-size:13px;font-weight:400;letter-spacing:8px;fill:#7A5200;opacity:0;animation:fade-in 0.5s ease-out 0.3s forwards}

  .conn{stroke:#3D2800;stroke-width:0.5;fill:none}
  .no{fill:#7A5200;opacity:0.5}
  .ni{fill:#FFB800;opacity:0.7}
  .np1{animation:pulse-node 2.5s ease-in-out infinite}
  .np2{animation:pulse-node 2.5s ease-in-out 0.5s infinite}
  .np3{animation:pulse-node 2.5s ease-in-out 1s infinite}
  .np4{animation:pulse-node 2.5s ease-in-out 1.5s infinite}
  .np5{animation:pulse-node 2.5s ease-in-out 2s infinite}

  .ekg-g{animation:ekg-scroll 4s linear infinite}
</style>
</defs>

<rect class="bg" width="800" height="300"/>

<!-- ============ FULL-WIDTH EKG BEHIND NAME ============ -->
<g clip-path="url(#ekg-full)">
<clipPath id="ekg-full"><rect x="0" y="40" width="800" height="90"/></clipPath>
<g class="ekg-g">
<polyline points="0,85 50,85 60,80 62,85 64,70 66,98 68,80 75,85 130,85 140,80 142,85 144,70 146,98 148,80 155,85 210,85 220,80 222,85 224,70 226,98 228,80 235,85 290,85 300,80 302,85 304,70 306,98 308,80 315,85 370,85 380,80 382,85 384,70 386,98 388,80 395,85 450,85 460,80 462,85 464,70 466,98 468,80 475,85 530,85 540,80 542,85 544,70 546,98 548,80 555,85 610,85 620,80 622,85 624,70 626,98 628,80 635,85 690,85 700,80 702,85 704,70 706,98 708,80 715,85 770,85 780,80 782,85 784,70 786,98 788,80 795,85 850,85 860,80 862,85 864,70 866,98 868,80 875,85 930,85 940,80 942,85 944,70 946,98 948,80 955,85 1010,85 1020,80 1022,85 1024,70 1026,98 1028,80 1035,85 1090,85 1100,80 1102,85 1104,70 1106,98 1108,80 1115,85 1200,85" fill="none" stroke="#FF8C00" stroke-width="1.5" opacity="0.25"/>
</g>
<!-- Second EKG line slightly offset for depth -->
<g class="ekg-g" style="animation-delay:-1.5s">
<polyline points="0,85 50,85 60,80 62,85 64,70 66,98 68,80 75,85 130,85 140,80 142,85 144,70 146,98 148,80 155,85 210,85 220,80 222,85 224,70 226,98 228,80 235,85 290,85 300,80 302,85 304,70 306,98 308,80 315,85 370,85 380,80 382,85 384,70 386,98 388,80 395,85 450,85 460,80 462,85 464,70 466,98 468,80 475,85 530,85 540,80 542,85 544,70 546,98 548,80 555,85 610,85 620,80 622,85 624,70 626,98 628,80 635,85 690,85 700,80 702,85 704,70 706,98 708,80 715,85 770,85 780,80 782,85 784,70 786,98 788,80 795,85 850,85 860,80 862,85 864,70 866,98 868,80 875,85 930,85 940,80 942,85 944,70 946,98 948,80 955,85 1010,85 1020,80 1022,85 1024,70 1026,98 1028,80 1035,85 1090,85 1100,80 1102,85 1104,70 1106,98 1108,80 1115,85 1200,85" fill="none" stroke="#FFB800" stroke-width="1" opacity="0.12"/>
</g>
</g>

<!-- ============ NAME (center, on top of EKG) ============ -->
<text class="name" text-anchor="middle" x="400" y="95">FUENFGELD</text>
<text class="sub" text-anchor="middle" x="400" y="125">HEALTH INFORMATICS</text>

<!-- ============ NEURAL NETWORK (bottom, full width) ============ -->
<g transform="translate(100,150)">

<g class="conn">
<line x1="0" y1="20" x2="120" y2="10"/><line x1="0" y1="20" x2="120" y2="40"/><line x1="0" y1="20" x2="120" y2="70"/>
<line x1="0" y1="50" x2="120" y2="10"/><line x1="0" y1="50" x2="120" y2="40"/><line x1="0" y1="50" x2="120" y2="70"/><line x1="0" y1="50" x2="120" y2="100"/>
<line x1="0" y1="80" x2="120" y2="40"/><line x1="0" y1="80" x2="120" y2="70"/><line x1="0" y1="80" x2="120" y2="100"/><line x1="0" y1="80" x2="120" y2="130"/>
<line x1="0" y1="110" x2="120" y2="70"/><line x1="0" y1="110" x2="120" y2="100"/><line x1="0" y1="110" x2="120" y2="130"/>
<line x1="120" y1="10" x2="240" y2="20"/><line x1="120" y1="10" x2="240" y2="50"/>
<line x1="120" y1="40" x2="240" y2="20"/><line x1="120" y1="40" x2="240" y2="50"/><line x1="120" y1="40" x2="240" y2="80"/>
<line x1="120" y1="70" x2="240" y2="50"/><line x1="120" y1="70" x2="240" y2="80"/><line x1="120" y1="70" x2="240" y2="110"/>
<line x1="120" y1="100" x2="240" y2="80"/><line x1="120" y1="100" x2="240" y2="110"/>
<line x1="120" y1="130" x2="240" y2="80"/><line x1="120" y1="130" x2="240" y2="110"/>
<line x1="240" y1="20" x2="360" y2="20"/><line x1="240" y1="20" x2="360" y2="50"/>
<line x1="240" y1="50" x2="360" y2="20"/><line x1="240" y1="50" x2="360" y2="50"/><line x1="240" y1="50" x2="360" y2="80"/>
<line x1="240" y1="80" x2="360" y2="50"/><line x1="240" y1="80" x2="360" y2="80"/><line x1="240" y1="80" x2="360" y2="110"/>
<line x1="240" y1="110" x2="360" y2="80"/><line x1="240" y1="110" x2="360" y2="110"/>
<line x1="360" y1="20" x2="480" y2="40"/><line x1="360" y1="20" x2="480" y2="70"/>
<line x1="360" y1="50" x2="480" y2="40"/><line x1="360" y1="50" x2="480" y2="70"/><line x1="360" y1="50" x2="480" y2="100"/>
<line x1="360" y1="80" x2="480" y2="40"/><line x1="360" y1="80" x2="480" y2="70"/><line x1="360" y1="80" x2="480" y2="100"/>
<line x1="360" y1="110" x2="480" y2="70"/><line x1="360" y1="110" x2="480" y2="100"/>
<line x1="480" y1="40" x2="600" y2="55"/><line x1="480" y1="40" x2="600" y2="85"/>
<line x1="480" y1="70" x2="600" y2="55"/><line x1="480" y1="70" x2="600" y2="85"/>
<line x1="480" y1="100" x2="600" y2="55"/><line x1="480" y1="100" x2="600" y2="85"/>
</g>

<!-- Signals -->
<circle r="3" fill="#FFD866">
<animate attributeName="cx" values="0;120;240;360;480;600;600" dur="3.5s" repeatCount="indefinite"/>
<animate attributeName="cy" values="20;40;50;50;40;55;55" dur="3.5s" repeatCount="indefinite"/>
<animate attributeName="opacity" values="0;0.9;0.9;0.9;0.9;0.9;0" dur="3.5s" repeatCount="indefinite"/>
</circle>
<circle r="6" fill="#FFD866">
<animate attributeName="cx" values="0;120;240;360;480;600;600" dur="3.5s" repeatCount="indefinite"/>
<animate attributeName="cy" values="20;40;50;50;40;55;55" dur="3.5s" repeatCount="indefinite"/>
<animate attributeName="opacity" values="0;0.1;0.1;0.1;0.1;0.1;0" dur="3.5s" repeatCount="indefinite"/>
</circle>

<circle r="3" fill="#FFB800">
<animate attributeName="cx" values="0;120;240;360;480;600;600" dur="3.2s" begin="0.6s" repeatCount="indefinite"/>
<animate attributeName="cy" values="80;100;110;110;100;85;85" dur="3.2s" begin="0.6s" repeatCount="indefinite"/>
<animate attributeName="opacity" values="0;0.9;0.9;0.9;0.9;0.9;0" dur="3.2s" begin="0.6s" repeatCount="indefinite"/>
</circle>
<circle r="6" fill="#FFB800">
<animate attributeName="cx" values="0;120;240;360;480;600;600" dur="3.2s" begin="0.6s" repeatCount="indefinite"/>
<animate attributeName="cy" values="80;100;110;110;100;85;85" dur="3.2s" begin="0.6s" repeatCount="indefinite"/>
<animate attributeName="opacity" values="0;0.1;0.1;0.1;0.1;0.1;0" dur="3.2s" begin="0.6s" repeatCount="indefinite"/>
</circle>

<circle r="2.5" fill="#FF8C00">
<animate attributeName="cx" values="0;120;240;360;480;600;600" dur="3.8s" begin="1.2s" repeatCount="indefinite"/>
<animate attributeName="cy" values="50;10;20;20;40;55;55" dur="3.8s" begin="1.2s" repeatCount="indefinite"/>
<animate attributeName="opacity" values="0;0.85;0.85;0.85;0.85;0.85;0" dur="3.8s" begin="1.2s" repeatCount="indefinite"/>
</circle>

<circle r="2.5" fill="#FFAA00">
<animate attributeName="cx" values="0;120;240;360;480;600;600" dur="3s" begin="1.8s" repeatCount="indefinite"/>
<animate attributeName="cy" values="110;130;80;80;70;85;85" dur="3s" begin="1.8s" repeatCount="indefinite"/>
<animate attributeName="opacity" values="0;0.85;0.85;0.85;0.85;0.85;0" dur="3s" begin="1.8s" repeatCount="indefinite"/>
</circle>

<circle r="3" fill="#FFD866">
<animate attributeName="cx" values="0;120;240;360;480;600;600" dur="3.6s" begin="0.3s" repeatCount="indefinite"/>
<animate attributeName="cy" values="50;70;80;80;70;55;55" dur="3.6s" begin="0.3s" repeatCount="indefinite"/>
<animate attributeName="opacity" values="0;0.8;0.8;0.8;0.8;0.8;0" dur="3.6s" begin="0.3s" repeatCount="indefinite"/>
</circle>

<circle r="2.5" fill="#FFB800">
<animate attributeName="cx" values="0;120;240;360;480;600;600" dur="3.3s" begin="2.2s" repeatCount="indefinite"/>
<animate attributeName="cy" values="20;70;50;50;100;85;85" dur="3.3s" begin="2.2s" repeatCount="indefinite"/>
<animate attributeName="opacity" values="0;0.8;0.8;0.8;0.8;0.8;0" dur="3.3s" begin="2.2s" repeatCount="indefinite"/>
</circle>

<!-- Nodes -->
<circle class="no np1" cx="0" cy="20" r="4.5"/><circle class="ni np1" cx="0" cy="20" r="1.8"/>
<circle class="no np2" cx="0" cy="50" r="4.5"/><circle class="ni np2" cx="0" cy="50" r="1.8"/>
<circle class="no np3" cx="0" cy="80" r="4.5"/><circle class="ni np3" cx="0" cy="80" r="1.8"/>
<circle class="no np4" cx="0" cy="110" r="4.5"/><circle class="ni np4" cx="0" cy="110" r="1.8"/>

<circle class="no np3" cx="120" cy="10" r="4"/><circle class="ni np3" cx="120" cy="10" r="1.5"/>
<circle class="no np5" cx="120" cy="40" r="4"/><circle class="ni np5" cx="120" cy="40" r="1.5"/>
<circle class="no np1" cx="120" cy="70" r="4"/><circle class="ni np1" cx="120" cy="70" r="1.5"/>
<circle class="no np4" cx="120" cy="100" r="4"/><circle class="ni np4" cx="120" cy="100" r="1.5"/>
<circle class="no np2" cx="120" cy="130" r="4"/><circle class="ni np2" cx="120" cy="130" r="1.5"/>

<circle class="no np5" cx="240" cy="20" r="4"/><circle class="ni np5" cx="240" cy="20" r="1.5"/>
<circle class="no np2" cx="240" cy="50" r="4"/><circle class="ni np2" cx="240" cy="50" r="1.5"/>
<circle class="no np4" cx="240" cy="80" r="4"/><circle class="ni np4" cx="240" cy="80" r="1.5"/>
<circle class="no np1" cx="240" cy="110" r="4"/><circle class="ni np1" cx="240" cy="110" r="1.5"/>

<circle class="no np2" cx="360" cy="20" r="4"/><circle class="ni np2" cx="360" cy="20" r="1.5"/>
<circle class="no np4" cx="360" cy="50" r="4"/><circle class="ni np4" cx="360" cy="50" r="1.5"/>
<circle class="no np5" cx="360" cy="80" r="4"/><circle class="ni np5" cx="360" cy="80" r="1.5"/>
<circle class="no np3" cx="360" cy="110" r="4"/><circle class="ni np3" cx="360" cy="110" r="1.5"/>

<circle class="no np1" cx="480" cy="40" r="4"/><circle class="ni np1" cx="480" cy="40" r="1.5"/>
<circle class="no np3" cx="480" cy="70" r="4"/><circle class="ni np3" cx="480" cy="70" r="1.5"/>
<circle class="no np5" cx="480" cy="100" r="4"/><circle class="ni np5" cx="480" cy="100" r="1.5"/>

<circle class="no np4" cx="600" cy="55" r="5"/><circle class="ni np4" cx="600" cy="55" r="2"/>
<circle class="no np2" cx="600" cy="85" r="5"/><circle class="ni np2" cx="600" cy="85" r="2"/>
</g>
</svg>
